<svg width="600.000000" height="600.000000" viewBox="0 0 600 600" fill="none"
	xmlns="http://www.w3.org/2000/svg" xmlns:xlink="http://www.w3.org/1999/xlink">
	<desc>
		Created with Pixso.
	</desc>
	<defs />
	<path id="path"
		d="M433.739 60.6383C408.339 60.6383 388.231 81.9149 388.231 107.447L388.231 192.553C380.823 188.298 372.357 185.106 362.832 185.106C353.307 185.106 344.841 188.298 337.432 192.553C335.316 168.085 316.266 148.936 291.925 148.936C282.4 148.936 273.934 152.128 266.526 156.383L266.526 46.8085C266.526 21.2766 245.359 0 219.96 0C194.56 0 173.394 21.2766 173.394 46.8085L173.394 248.936C146.936 250 124.712 272.34 124.712 300L124.712 376.596C124.712 406.383 132.12 435.106 145.878 461.702L171.278 509.574L171.278 575.532C171.278 589.362 181.861 600 195.619 600L409.397 600C423.156 600 433.739 589.362 433.739 575.532L433.739 509.574L459.138 461.702C472.896 436.17 480.304 406.383 480.304 376.596L480.304 107.447C480.304 81.9149 459.138 60.6383 433.739 60.6383ZM362.832 206.383C376.59 206.383 387.173 217.021 387.173 230.851L387.173 294.681C387.173 308.511 376.59 319.149 362.832 319.149C349.074 319.149 338.491 308.511 338.491 294.681L338.491 230.851C338.491 217.021 349.074 206.383 362.832 206.383ZM291.925 170.213C305.683 170.213 317.324 181.915 317.324 195.745L317.324 230.851L317.324 255.319C309.916 251.064 301.45 247.872 291.925 247.872L266.526 247.872L266.526 194.681C267.584 181.915 278.167 170.213 291.925 170.213ZM221.018 22.3405C234.776 22.3405 246.418 34.0425 246.418 47.8723L246.418 196.808L246.418 250L196.677 250L196.677 47.8723C196.677 32.9788 207.26 22.3405 221.018 22.3405ZM412.572 575.532C412.572 577.66 411.514 578.723 409.397 578.723L197.735 578.723C195.619 578.723 194.56 577.66 194.56 575.532L194.56 517.021L411.514 517.021L412.572 575.532ZM459.138 375.532C459.138 401.064 452.788 427.66 440.089 450L415.747 494.681L190.327 494.681L165.986 450C153.286 426.596 146.936 401.064 146.936 375.532L146.936 300C146.936 284.043 160.694 270.213 176.569 270.213L290.867 270.213C304.625 270.213 316.266 281.915 316.266 295.745C316.266 309.574 304.625 321.277 290.867 321.277L213.61 321.277C207.26 321.277 203.027 325.532 203.027 331.915C203.027 338.298 207.26 342.553 213.61 342.553L230.543 342.553C258.059 342.553 280.284 364.894 280.284 392.553L280.284 412.766C280.284 419.149 284.517 423.404 290.867 423.404C297.217 423.404 301.45 419.149 301.45 412.766L301.45 392.553C301.45 373.404 294.042 355.319 281.342 342.553L290.867 342.553C305.683 342.553 317.324 336.17 325.791 325.532C334.257 336.17 346.957 342.553 360.715 342.553C386.115 342.553 406.223 322.34 406.223 296.808L406.223 232.979L406.223 107.447C406.223 93.617 417.864 81.9149 430.564 81.9149C443.263 81.9149 455.963 93.6171 455.963 107.447L455.963 375.532L459.138 375.532Z"
		fill-rule="nonzero" fill="#A52127" />
	<path id="path"
		d="M598.083 292.032C595.966 287.777 590.675 284.586 586.442 284.586L565.275 284.586L565.275 223.947C565.275 218.628 562.1 213.309 556.809 212.245C551.517 211.181 546.226 212.245 543.051 217.564L488.019 300.543C484.844 304.798 484.844 310.117 486.96 314.373C489.077 318.628 494.369 321.82 498.602 321.82L519.768 321.82L519.768 382.458C519.768 387.777 522.943 393.096 528.234 394.16C529.293 394.16 530.351 395.224 531.409 395.224C535.643 395.224 539.876 393.096 541.992 389.905L597.025 306.926C600.2 302.671 601.258 297.352 598.083 292.032ZM540.934 353.734L540.934 311.181C540.934 304.798 536.701 300.543 530.351 300.543L513.418 300.543L544.109 253.734L544.109 296.288C544.109 302.671 548.342 306.926 554.692 306.926L571.625 306.926L540.934 353.734Z"
		fill-rule="nonzero" fill="#A52127" />
	<path id="path"
		d="M100.956 283.67L79.7902 283.67L79.7902 223.031C79.7902 217.712 76.6152 212.393 71.3237 211.329C66.0321 209.202 60.7405 211.329 57.5656 216.648L2.53348 299.627C-0.641479 303.882 -0.641479 309.202 1.47516 313.457C3.59177 317.712 8.88333 320.904 13.1166 320.904L34.2828 320.904L34.2828 381.542C34.2828 386.861 37.4577 392.18 42.7493 393.244C43.8076 393.244 44.8659 394.308 45.9242 394.308C50.1574 394.308 54.3907 392.18 56.5073 388.989L111.539 306.01C114.714 301.755 114.714 296.436 112.598 292.18C110.481 285.797 106.248 283.67 100.956 283.67ZM55.449 351.755L55.449 309.202C55.449 302.819 51.2158 298.563 44.8659 298.563L27.9329 298.563L58.6239 251.755L58.6239 294.308C58.6239 300.691 62.8572 304.946 69.207 304.946L86.14 304.946L55.449 351.755Z"
		fill-rule="nonzero" fill="#A52127" />
</svg>